<?xml version="1.0" encoding="UTF-8"?>
<svg version="1.1" xmlns="http://www.w3.org/2000/svg" width="388" height="466">
<path d="M0 0 C2.38867187 0.3371582 2.38867187 0.3371582 5 1 C6.78125 3.60546875 6.78125 3.60546875 8.5 7.1875 C9.19157443 8.57284006 9.88853235 9.95550112 10.58984375 11.3359375 C11.1619458 12.46467285 11.1619458 12.46467285 11.74560547 13.61621094 C14.02229737 17.94272314 16.55233871 22.11857885 19.0625 26.3125 C23.91880349 34.46367002 28.70665919 42.65035154 33.4375 50.875 C38.26555816 59.26546077 43.11469266 67.642736 48 76 C53.49955286 85.40984592 58.95449235 94.84470631 64.39453125 104.2890625 C68.57349128 111.5395149 72.77740506 118.77488269 77 126 C82.49945536 135.4099033 87.95449196 144.84470563 93.39453125 154.2890625 C98.14142001 162.52486536 102.92481696 170.73878568 107.72167969 178.94555664 C112.74090205 187.5395241 117.71163196 196.16104321 122.67797852 204.78564453 C126.06762929 210.66704876 129.4789302 216.53389251 132.9375 222.375 C137.28724651 229.7257772 141.5207456 237.14200973 145.75 244.5625 C152.5117892 256.42525326 159.35680925 268.23693021 166.25585938 280.02050781 C180.72240084 304.73350782 180.72240084 304.73350782 186.875 315.4375 C187.49117188 316.50871094 188.10734375 317.57992188 188.7421875 318.68359375 C190 321 190 321 190 322 C65.92 322 -58.16 322 -186 322 C-178.00611199 306.01222397 -178.00611199 306.01222397 -174.4375 300.125 C-173.57492737 298.6787392 -172.71298594 297.23210182 -171.8515625 295.78515625 C-171.39426758 295.01961426 -170.93697266 294.25407227 -170.46582031 293.46533203 C-167.72013149 288.84741635 -165.01808764 284.20398549 -162.3125 279.5625 C-161.72267334 278.5513916 -161.13284668 277.5402832 -160.52514648 276.49853516 C-155.52505352 267.91908197 -150.5631894 259.31782319 -145.60668945 250.71313477 C-140.85651949 242.47143938 -136.06938067 234.25189739 -131.26953125 226.0390625 C-126.98777878 218.70716277 -122.73789061 211.35732762 -118.5 204 C-113.1208592 194.66136793 -107.70740553 185.34359683 -102.26953125 176.0390625 C-97.98777854 168.70716236 -93.73795309 161.35729193 -89.5 154 C-81.80882531 140.64984335 -74.0451704 127.34266872 -66.27050781 114.04101562 C-64.53393163 111.06934494 -62.79797346 108.09731481 -61.0625 105.125 C-60.48822266 104.14144531 -59.91394531 103.15789062 -59.32226562 102.14453125 C-55.00151079 94.7361467 -50.71579099 87.30796824 -46.4375 79.875 C-41.2964063 70.94580153 -36.09893635 62.05283148 -30.84570312 53.18920898 C-20.39734285 35.55520315 -10.12988755 17.81870282 0 0 Z " fill="#211D22" transform="translate(192,0)"/>
<path d="M0 0 C115.5 0 231 0 350 0 C347.91170293 5.22074268 347.04186994 6.1356162 342.6875 9.25 C342.15261963 9.63712158 341.61773926 10.02424316 341.06665039 10.4230957 C336.32216193 13.83650117 331.48789598 17.12426548 326.66796875 20.4296875 C322.29432332 23.46515515 318.02640366 26.64226286 313.75 29.8125 C305.61174788 35.84152437 297.38315258 41.72542878 289.08837891 47.53662109 C272.61440327 59.08034449 256.28829854 70.81464565 240.1081543 82.7668457 C231.04853864 89.45284391 221.90939973 96.0275323 212.77050781 102.60449219 C211.27996611 103.67755175 209.78973281 104.75103983 208.29980469 105.82495117 C206.81680639 106.8938298 205.33309014 107.96171306 203.84863281 109.02856445 C199.80630404 111.94178323 195.79815675 114.89374037 191.8203125 117.89453125 C190.53435181 118.85951538 190.53435181 118.85951538 189.22241211 119.84399414 C187.56918224 121.08706123 185.92126842 122.33723964 184.27954102 123.59545898 C183.53115967 124.15692627 182.78277832 124.71839355 182.01171875 125.296875 C181.35647217 125.79541992 180.70122559 126.29396484 180.02612305 126.80761719 C177.65821467 128.20114225 175.72532802 128.70886953 173 129 C170.921875 127.76953125 170.921875 127.76953125 168.75 125.8125 C164.34619397 122.05918231 159.81457729 118.67574954 155.0625 115.375 C148.85615942 111.03774774 142.71414078 106.62539667 136.625 102.125 C135.83351562 101.54024902 135.04203125 100.95549805 134.2265625 100.35302734 C131.02604096 97.98570479 127.82800216 95.6150678 124.63232422 93.24121094 C115.01694786 86.09995485 105.33021771 79.09294814 95.49389648 72.25878906 C88.8194026 67.60807311 82.25994781 62.81493385 75.72485352 57.97094727 C70.60775728 54.17894226 65.45830191 50.43993492 60.26708984 46.75024414 C55.57893982 43.41769561 50.91159446 40.0570871 46.25 36.6875 C45.49267578 36.14029297 44.73535156 35.59308594 43.95507812 35.02929688 C40.11813491 32.25618914 36.28289631 29.48074535 32.44921875 26.703125 C30.94544609 25.61439879 29.44154066 24.52585595 27.9375 23.4375 C27.2043457 22.90688965 26.47119141 22.3762793 25.71582031 21.82958984 C19.61712351 17.42527361 13.47444326 13.08484322 7.30444336 8.78100586 C6.63678955 8.31315674 5.96913574 7.84530762 5.28125 7.36328125 C4.69408203 6.95376221 4.10691406 6.54424316 3.50195312 6.12231445 C2 5 2 5 0 3 C0 2.01 0 1.02 0 0 Z " fill="#231F24" transform="translate(19,337)"/>
<path d="M0 0 C10.62116562 3.84128955 19.93576117 12.01544503 29.05029297 18.59326172 C31.10593118 20.07643069 33.16420585 21.55589316 35.22265625 23.03515625 C43.82119305 29.22218654 52.37073747 35.47220601 60.89111328 41.76635742 C68.47602148 47.36385515 76.11555308 52.88384856 83.76611328 58.39111328 C87.51359784 61.09012128 91.25655845 63.79538884 95 66.5 C96.49997854 67.58336304 97.99997854 68.66669638 99.5 69.75 C102.5 71.91666667 105.5 74.08333333 108.5 76.25 C109.24241943 76.78616943 109.98483887 77.32233887 110.74975586 77.87475586 C112.2506555 78.95878416 113.75146922 80.04293142 115.25219727 81.12719727 C118.98773967 83.82587655 122.72472254 86.52251312 126.46484375 89.21484375 C135.19765271 95.50498226 143.89267669 101.84293911 152.54467773 108.24389648 C153.28661377 108.79247314 154.0285498 109.3410498 154.79296875 109.90625 C155.4377417 110.38384766 156.08251465 110.86144531 156.74682617 111.35351562 C159.10625781 113.19610027 159.10625781 113.19610027 162.59115601 114.62077332 C165.35687354 116.62819268 165.93738745 117.69614212 166.63688755 121.09080696 C166.86613738 125.31398608 166.86615434 129.48752465 166.79467773 133.71411133 C166.79270265 135.34044306 166.79381266 136.96678103 166.79777527 138.59310913 C166.7997836 143.00437684 166.75863335 147.41431194 166.70975757 151.82526994 C166.66599514 156.43631624 166.66188622 161.04739318 166.65357971 165.65861511 C166.63182368 174.38877917 166.57438179 183.11832955 166.50413328 191.84822339 C166.42588855 201.78760392 166.38740303 211.72701377 166.35226524 221.66662562 C166.27909906 242.11142626 166.15597633 262.55567447 166 283 C164.68 283 163.36 283 162 283 C161.69932617 282.46858398 161.39865234 281.93716797 161.08886719 281.38964844 C155.5378908 271.59257372 149.94569156 261.82728596 144.125 252.1875 C132.44484928 232.83029085 121.22584135 213.20557309 110.03222656 193.56445312 C108.02126004 190.03639938 106.00723791 186.51009752 103.9921875 182.984375 C103.66259033 182.40768066 103.33299316 181.83098633 102.9934082 181.23681641 C101.99565815 179.49118082 100.99784228 177.74558287 100 176 C96.31337466 169.55077438 92.62691028 163.10146901 88.94871521 156.64743042 C77.49234635 136.54530539 65.87919674 116.53975514 54.09814453 96.62597656 C43.24463805 78.275517 32.44941569 59.89506574 21.91259766 41.3605957 C18.54183133 35.43334929 15.14677531 29.5234293 11.69921875 23.640625 C10.99808563 22.44042074 10.29707466 21.24014512 9.59619141 20.03979492 C8.27376215 17.77500404 6.94295037 15.51591748 5.60693359 13.2590332 C5.01605957 12.24671631 4.42518555 11.23439941 3.81640625 10.19140625 C3.29506104 9.30654541 2.77371582 8.42168457 2.23657227 7.51000977 C0.98949742 4.97868174 0.41398944 2.77999994 0 0 Z " fill="#252126" transform="translate(222,14)"/>
<path d="M0 0 C-1.62492483 5.97457117 -4.67560609 10.99410525 -7.75 16.3125 C-8.93294457 18.37983488 -10.11521305 20.44755673 -11.296875 22.515625 C-12.21436523 24.11760742 -12.21436523 24.11760742 -13.15039062 25.75195312 C-15.54780897 29.96199188 -17.90294265 34.19485418 -20.25708008 38.42919922 C-26.79074197 50.17496427 -33.5248418 61.78564043 -40.40869141 73.32910156 C-43.03308182 77.73395445 -45.64172416 82.14809185 -48.25 86.5625 C-48.77674316 87.45364502 -49.30348633 88.34479004 -49.84619141 89.26293945 C-56.57166375 100.64904614 -63.25565091 112.05948813 -69.93505859 123.47265625 C-71.8675819 126.77454319 -73.80295787 130.07475345 -75.73828125 133.375 C-81.44724761 143.12301101 -87.09232622 152.90075163 -92.625 162.75 C-97.16222808 170.82607425 -101.83313673 178.80568222 -106.62597656 186.73242188 C-110.87621604 193.7667221 -115.00214514 200.86757292 -119.10546875 207.98828125 C-121.69938663 212.48804427 -124.31918332 216.97233836 -126.94238281 221.45507812 C-132.38519012 230.7568876 -137.77264704 240.08738191 -143.10235596 249.45425415 C-146.05702112 254.64259679 -149.0267796 259.82227154 -152 265 C-152.90371338 266.57587891 -152.90371338 266.57587891 -153.82568359 268.18359375 C-155.47514411 271.04677346 -157.14039625 273.90000013 -158.8125 276.75 C-159.29799316 277.59594727 -159.78348633 278.44189453 -160.28369141 279.31347656 C-160.73276855 280.07112305 -161.1818457 280.82876953 -161.64453125 281.609375 C-162.02971924 282.26905273 -162.41490723 282.92873047 -162.81176758 283.60839844 C-163.39994263 284.29724121 -163.39994263 284.29724121 -164 285 C-164.99 285 -165.98 285 -167 285 C-167.42129619 263.58168103 -167.73828513 242.16404901 -167.93261909 220.74242115 C-168.02527039 210.79472314 -168.15146642 200.84960545 -168.35791016 190.90356445 C-168.5378575 182.22989865 -168.65356779 173.55810157 -168.69359291 164.88262099 C-168.71697968 160.29173031 -168.77151994 155.70618293 -168.90314102 151.11701393 C-169.73449413 120.96890329 -169.73449413 120.96890329 -163.18719482 114.01669312 C-159.54133401 111.03396349 -155.70028787 108.98907437 -151.38685417 107.13730621 C-147.2407303 105.16172995 -143.70097364 102.33765865 -140.0625 99.5625 C-139.23121582 98.96324707 -138.39993164 98.36399414 -137.54345703 97.74658203 C-132.14780189 93.84638192 -126.78918866 89.89772787 -121.4375 85.9375 C-114.79904453 81.02787933 -108.10253053 76.21358412 -101.34570312 71.46850586 C-90.41995979 63.79222929 -79.59174438 55.98678822 -68.9375 47.9375 C-61.45405522 42.2873787 -53.81913419 36.87084742 -46.13671875 31.49560547 C-42.60700211 29.02496514 -39.08386381 26.54502683 -35.5625 24.0625 C-34.87115967 23.57515381 -34.17981934 23.08780762 -33.4675293 22.58569336 C-26.61550182 17.74547374 -19.81677183 12.83226341 -13.0234375 7.91015625 C-12.35022461 7.42434082 -11.67701172 6.93852539 -10.98339844 6.43798828 C-9.64794757 5.46976996 -8.31793519 4.4940108 -6.99316406 3.51123047 C-2.21532534 0 -2.21532534 0 0 0 Z " fill="#242025" transform="translate(167,13)"/>
<path d="M0 0 C0.66 0.33 1.32 0.66 2 1 C1.026056 1.78367384 1.026056 1.78367384 0.03243637 2.58317947 C-2.64054966 5.7616935 -2.50630176 7.54807304 -2.51898193 11.66912842 C-2.52648319 12.33816515 -2.53398444 13.00720189 -2.541713 13.69651246 C-2.56200335 15.93698784 -2.55388561 18.17645248 -2.54589844 20.41699219 C-2.55463279 22.0234833 -2.56511809 23.6299657 -2.57722473 25.23643494 C-2.6051225 29.59769825 -2.60848859 33.95867822 -2.60750484 38.32001781 C-2.61063071 42.87781838 -2.6362421 47.43549072 -2.65948486 51.9932251 C-2.70007345 60.6239614 -2.72039228 69.2546221 -2.73345876 77.88543916 C-2.74931913 87.71128953 -2.78773068 97.53701106 -2.82805204 107.36278677 C-2.91049009 127.5751487 -2.96455779 147.78750463 -3 168 C-2.34 168.33 -1.68 168.66 -1 169 C-1.99 169 -2.98 169 -4 169 C-4.09335972 147.40814233 -4.16393814 125.81631785 -4.20724869 104.22429943 C-4.22789128 94.19918771 -4.25604422 84.17420125 -4.30175781 74.14916992 C-4.34157371 65.4133578 -4.36742046 56.67763638 -4.37635398 47.94173604 C-4.38157765 43.31428097 -4.39389017 38.68708542 -4.42292023 34.05971336 C-4.45000657 29.70703282 -4.45845883 25.35471947 -4.45243073 21.00196266 C-4.45353402 19.4019331 -4.46152836 17.80189166 -4.4768219 16.20193481 C-4.49664487 14.02175622 -4.49196889 11.84297459 -4.48101807 9.6627655 C-4.48470524 8.4413898 -4.48839241 7.2200141 -4.49219131 5.96162701 C-4 3 -4 3 -1.96993637 1.08357716 C-1.31985737 0.72599669 -0.66977837 0.36841623 0 0 Z " fill="#666467" transform="translate(4,129)"/>
</svg>
